<?xml version="1.0" standalone="no"?><svg xmlns="http://www.w3.org/2000/svg" viewBox="0 0 1440 320"><path fill="#dce5e4" fill-opacity="0.5" d="M0,192L34.3,197.3C68.6,203,137,213,206,202.7C274.3,192,343,160,411,133.3C480,107,549,85,617,106.7C685.7,128,754,192,823,234.7C891.4,277,960,299,1029,261.3C1097.1,224,1166,128,1234,96C1302.9,64,1371,96,1406,112L1440,128L1440,320L1405.7,320C1371.4,320,1303,320,1234,320C1165.7,320,1097,320,1029,320C960,320,891,320,823,320C754.3,320,686,320,617,320C548.6,320,480,320,411,320C342.9,320,274,320,206,320C137.1,320,69,320,34,320L0,320Z"></path></svg>